<svg xmlns="http://www.w3.org/2000/svg" width="31.432" height="31.432" viewBox="0 0 31.432 31.432"><defs><style>.a{fill:none;}</style></defs><path class="a" d="M0,0H31.432V31.432H0Z"/><path d="M17.693,23.562H20.48v2.787H17.693ZM19.936,9.68a5.578,5.578,0,0,0-6.174,3.888A1.264,1.264,0,0,0,14.975,15.2h.279a1.341,1.341,0,0,0,1.226-.934,2.79,2.79,0,0,1,3.206-1.784,2.82,2.82,0,0,1,2.188,2.927c-.139,1.868-2.258,2.272-3.415,4.014,0,.014-.014.014-.014.028s-.028.042-.042.07a4.643,4.643,0,0,0-.348.7c-.014.042-.042.07-.056.111a.888.888,0,0,0-.028.1,5.181,5.181,0,0,0-.279,1.742H20.48a2.961,2.961,0,0,1,.39-1.491c.028-.042.042-.084.07-.125a3.844,3.844,0,0,1,.39-.544c.014-.014.028-.042.042-.056a4.9,4.9,0,0,1,.46-.474c1.338-1.268,3.15-2.3,2.774-4.962A5.68,5.68,0,0,0,19.936,9.68Z" transform="translate(-3.37 -2.271)"/></svg>